<svg id="Capa_1" data-name="Capa 1" xmlns="http://www.w3.org/2000/svg" viewBox="0 0 1958.57 1000"><defs><style>.cls-1{fill:#1f59b5;}</style></defs><path class="cls-1" d="M490.21,315.85c-94.91-94.92-248.85-94.82-343.65.28a242.18,242.18,0,0,0,1.5,344.28c76.38,75.33,190.24,89.76,281,43.34a16.22,16.22,0,0,0,2.49,3.23l8.54,8.55a16.5,16.5,0,0,0,23.31,0l.8-.81a18.2,18.2,0,0,1,25.86.28l.14.14,28.16,28.16c15.24,15.24,40.07,16.17,55.72,1.36a39.56,39.56,0,0,0,.8-56.71l-28.75-28.74-.14-.14a18.19,18.19,0,0,1-.27-25.86l.8-.8a16.48,16.48,0,0,0,0-23.31L538,600.56a16.71,16.71,0,0,0-3.24-2.5C581.42,506.82,566.59,392.22,490.21,315.85ZM461.47,630.47c-79,78.94-206.94,78.94-285.88,0s-78.94-206.94,0-285.88,206.93-78.94,285.88,0S540.41,551.52,461.47,630.47Z"/><path class="cls-1" d="M255.67,510.38h-28v62.47H192.5V402.2h63.4q30.24,0,46.65,13.48T319,453.77q0,17.48-7.56,29.13t-22.91,18.57l36.92,69.74v1.64H287.67Zm-28-28.48H256q13.25,0,20.51-6.74t7.27-18.57q0-12.07-6.86-19t-21-6.92H227.66Z"/><path class="cls-1" d="M434.17,528.08q0-10-7-15.3t-25.32-11.25q-18.29-5.91-28.95-11.66-29.06-15.71-29.06-42.31a41.18,41.18,0,0,1,7.79-24.67Q359.4,412,374,406a84.3,84.3,0,0,1,32.76-6.09q18.28,0,32.58,6.62a52,52,0,0,1,22.21,18.69,49,49,0,0,1,7.91,27.43H434.29q0-11.72-7.39-18.22t-20.74-6.51q-12.9,0-20,5.45A17.18,17.18,0,0,0,379,447.68q0,8.32,8.38,13.95T412,472.17q30,9,43.72,22.39t13.71,33.29q0,22.14-16.76,34.75t-45.12,12.6A87.26,87.26,0,0,1,371.7,568q-16.17-7.22-24.67-19.75t-8.5-29.07h35.28q0,28.25,33.76,28.25,12.54,0,19.57-5.1T434.17,528.08Z"/><path class="cls-1" d="M737.89,537.69H676.24l-11.72,35.16H627.13L690.66,402.2h32.58l63.87,170.65H749.73Zm-52.16-28.48H728.4L707,445.33Z"/><path class="cls-1" d="M941.82,572.85H906.66L838.21,460.57V572.85H803.05V402.2h35.16l68.57,112.52V402.2h35Z"/><path class="cls-1" d="M1071,537.69h-61.65l-11.72,35.16H960.22l63.53-170.65h32.58l63.88,170.65h-37.39Zm-52.15-28.48h42.66L1040,445.33Z"/><path class="cls-1" d="M1171.31,544.61H1246v28.24H1136.15V402.2h35.16Z"/><path class="cls-1" d="M1292.26,479.09l35.52-76.89h38.44L1310.2,511v61.88h-35.75V511l-56-108.77H1257Z"/><path class="cls-1" d="M1512.26,430.68H1460V572.85h-35.16V430.68h-51.57V402.2h139Z"/><path class="cls-1" d="M1569.69,572.85h-35.17V402.2h35.17Z"/><path class="cls-1" d="M1736.23,516q-2,27.54-20.33,43.36t-48.35,15.83q-32.82,0-51.63-22.1t-18.81-60.65V482q0-24.61,8.67-43.37t24.79-28.77q16.13-10,37.45-10,29.54,0,47.58,15.82t20.87,44.42H1701.3q-1.29-16.53-9.2-24T1668,428.69q-17.58,0-26.31,12.6t-9,39.09v12.89q0,27.66,8.38,40.44t26.43,12.77q16.29,0,24.32-7.44t9.2-23Z"/><path class="cls-1" d="M1847.81,528.08q0-10-7-15.3t-25.32-11.25q-18.29-5.91-29-11.66-29.07-15.71-29.06-42.31a41.18,41.18,0,0,1,7.79-24.67Q1773,412,1787.62,406a84.33,84.33,0,0,1,32.76-6.09q18.28,0,32.59,6.62a52,52,0,0,1,22.21,18.69,49,49,0,0,1,7.91,27.43h-35.16q0-11.72-7.39-18.22t-20.74-6.51q-12.9,0-20,5.45a17.18,17.18,0,0,0-7.15,14.36q0,8.32,8.38,13.95t24.67,10.54q30,9,43.71,22.39t13.72,33.29q0,22.14-16.76,34.75t-45.13,12.6a87.22,87.22,0,0,1-35.86-7.21q-16.17-7.22-24.67-19.75t-8.5-29.07h35.28q0,28.25,33.75,28.25,12.54,0,19.58-5.1T1847.81,528.08Z"/></svg>